<svg width="118" height="22" viewBox="0 0 118 22" fill="none" xmlns="http://www.w3.org/2000/svg">
<path d="M15.648 7.984C15.9253 7.952 16.144 7.89867 16.304 7.824C16.4747 7.73867 16.56 7.648 16.56 7.552C16.56 7.456 16.464 7.38667 16.272 7.344C16.2187 7.39733 16.1227 7.49867 15.984 7.648C15.8453 7.79733 15.7333 7.90933 15.648 7.984ZM14.64 8L15.344 7.312C14.7147 7.32267 14.0533 7.40267 13.36 7.552C13.6267 7.78667 14.0533 7.936 14.64 8ZM24.416 2.448C24.416 2.256 24.208 2.16 23.792 2.16C22.7573 2.16 21.664 2.56533 20.512 3.376C21.8027 3.29067 22.688 3.21067 23.168 3.136C24 2.99733 24.416 2.768 24.416 2.448ZM19.392 3.744C17.2693 3.92533 15.808 4.17067 15.008 4.48C14.0907 4.832 13.4933 5.25333 13.216 5.744C13.056 6.032 12.976 6.33067 12.976 6.64C12.976 6.94933 13.0453 7.19467 13.184 7.376C13.9733 7.184 14.7733 7.08267 15.584 7.072C17.152 5.54667 18.4213 4.43733 19.392 3.744ZM14.4 8.224C13.76 8.16 13.2853 7.968 12.976 7.648C11.4507 8.064 10.2293 8.752 9.312 9.712C8.40533 10.6613 7.952 11.584 7.952 12.48C7.952 12.8107 8.016 13.0933 8.144 13.328C8.82667 12.9653 9.55733 12.4853 10.336 11.888C11.1147 11.28 11.776 10.7253 12.32 10.224C12.864 9.72267 13.5573 9.056 14.4 8.224ZM0.72 11.744C0.72 11.8507 0.682667 11.9467 0.608 12.032C0.533333 12.1173 0.464 12.16 0.4 12.16C0.346667 12.16 0.298667 12.1547 0.256 12.144C0.213333 12.144 0.192 12.208 0.192 12.336C0.192 12.8267 0.432 13.232 0.912 13.552C1.712 14.0853 2.85867 14.352 4.352 14.352C5.49333 14.352 6.688 14.048 7.936 13.44C7.808 13.152 7.744 12.832 7.744 12.48C7.744 11.8827 7.92533 11.2693 8.288 10.64C8.65067 10 9.22667 9.38667 10.016 8.8C10.8053 8.20267 11.7387 7.75467 12.816 7.456C12.6773 7.25333 12.608 6.992 12.608 6.672C12.608 6.352 12.6827 6.04267 12.832 5.744C12.992 5.44533 13.1947 5.18933 13.44 4.976C13.696 4.76267 14.0213 4.576 14.416 4.416C14.8107 4.24533 15.2 4.112 15.584 4.016C15.968 3.90933 16.4267 3.81333 16.96 3.728C17.6213 3.632 18.576 3.536 19.824 3.44C21.3173 2.448 22.72 1.952 24.032 1.952C24.2667 1.952 24.4267 1.984 24.512 2.048C24.608 2.10133 24.656 2.224 24.656 2.416C24.656 2.608 24.544 2.784 24.32 2.944C24.096 3.09333 23.7547 3.216 23.296 3.312C22.496 3.46133 21.4507 3.584 20.16 3.68C20.1493 3.68 20.1387 3.68 20.128 3.68H20.112C19.4507 4.17067 18.6667 4.87467 17.76 5.792C17.472 6.09067 17.0507 6.528 16.496 7.104C16.7947 7.168 16.944 7.28533 16.944 7.456C16.944 7.616 16.8053 7.77067 16.528 7.92C16.2613 8.05867 15.8987 8.15467 15.44 8.208C14.16 9.52 12.9653 10.6293 11.856 11.536C10.7573 12.432 9.6 13.1467 8.384 13.68C8.896 14.1067 9.50933 14.32 10.224 14.32C11.3227 14.32 12.6773 13.7867 14.288 12.72L14.32 12.96C12.7733 14.0373 11.3973 14.576 10.192 14.576C9.76533 14.576 9.38133 14.5067 9.04 14.368C8.70933 14.24 8.48 14.1067 8.352 13.968L8.16 13.776C6.83733 14.3093 5.50933 14.576 4.176 14.576C3.408 14.576 2.58133 14.4587 1.696 14.224C1.19467 14.0853 0.784 13.8613 0.464 13.552C0.154667 13.2427 0 12.864 0 12.416C0 12.16 0.0426667 11.9627 0.128 11.824C0.224 11.6747 0.32 11.5893 0.416 11.568L0.544 11.552C0.661333 11.5627 0.72 11.6267 0.72 11.744ZM18.0524 11.728L18.8044 11.632C18.9324 11.632 19.0337 11.6747 19.1084 11.76C19.183 11.8453 19.2204 11.9467 19.2204 12.064C19.2204 12.2987 19.055 12.5547 18.7244 12.832C18.3937 13.1093 18.063 13.3707 17.7324 13.616C17.4124 13.8613 17.2524 14.0587 17.2524 14.208C17.2524 14.2933 17.3217 14.336 17.4604 14.336C17.919 14.336 18.6177 14.0693 19.5564 13.536C19.9617 13.312 20.3937 13.04 20.8524 12.72L20.8844 12.96C20.5217 13.1947 20.1164 13.4347 19.6684 13.68C19.4124 13.84 19.039 14.0213 18.5484 14.224C18.0577 14.4373 17.6524 14.544 17.3324 14.544C17.0124 14.544 16.8524 14.4 16.8524 14.112C16.8524 13.7813 17.023 13.472 17.3644 13.184C17.7057 12.8853 18.0417 12.64 18.3724 12.448C18.7137 12.2453 18.8844 12.0907 18.8844 11.984C18.8844 11.952 18.847 11.936 18.7724 11.936L17.8764 12.016C17.7057 12.016 17.551 12 17.4124 11.968C16.9004 12.3307 16.3617 12.688 15.7964 13.04L15.7484 12.816L17.2684 11.76C17.279 11.5573 17.407 11.3547 17.6524 11.152C17.8977 10.9493 18.1057 10.848 18.2764 10.848C18.447 10.848 18.5324 10.896 18.5324 10.992C18.5324 11.0773 18.431 11.1893 18.2284 11.328C18.0257 11.4667 17.9244 11.568 17.9244 11.632C17.9244 11.696 17.967 11.728 18.0524 11.728ZM25.7095 9.776C25.7095 9.92533 25.6242 10.0693 25.4535 10.208C25.2828 10.3467 25.1228 10.416 24.9735 10.416C24.8348 10.416 24.7655 10.3573 24.7655 10.24C24.7655 10.1227 24.8508 9.98933 25.0215 9.84C25.1922 9.68 25.3468 9.6 25.4855 9.6C25.6348 9.6 25.7095 9.65867 25.7095 9.776ZM24.3495 11.504C22.9095 12.8053 22.1895 13.6213 22.1895 13.952C22.1895 14.0587 22.2642 14.112 22.4135 14.112C22.5522 14.112 22.7655 14.048 23.0535 13.92C23.3415 13.792 23.5975 13.664 23.8215 13.536C24.0455 13.3973 24.3122 13.232 24.6215 13.04C24.9415 12.8373 25.1122 12.7307 25.1335 12.72L25.1655 12.96C24.6748 13.28 24.1148 13.6 23.4855 13.92C22.8562 14.24 22.3815 14.4 22.0615 14.4C21.7308 14.4 21.5655 14.2667 21.5655 14C21.5655 13.776 21.7575 13.44 22.1415 12.992C22.5255 12.5333 22.9095 12.1333 23.2935 11.792L23.8695 11.28C23.9228 11.2373 24.0242 11.2213 24.1735 11.232C24.3228 11.2427 24.3975 11.296 24.3975 11.392C24.3975 11.4347 24.3815 11.472 24.3495 11.504ZM29.485 11.12C29.709 11.12 29.821 11.2427 29.821 11.488C29.821 11.7227 29.6503 12.0693 29.309 12.528C30.525 11.6853 31.501 11.264 32.237 11.264C32.525 11.264 32.669 11.3867 32.669 11.632C32.669 11.8773 32.5623 12.1333 32.349 12.4C32.1357 12.656 31.901 12.88 31.645 13.072C30.9623 13.5627 30.621 13.872 30.621 14C30.621 14.0747 30.6797 14.112 30.797 14.112C30.925 14.112 31.133 14.048 31.421 13.92C31.709 13.792 31.965 13.664 32.189 13.536C32.413 13.3973 32.6797 13.232 32.989 13.04C33.309 12.8373 33.4797 12.7307 33.501 12.72L33.533 12.96C32.093 13.92 31.085 14.4 30.509 14.4C30.2317 14.4 30.093 14.2667 30.093 14C30.093 13.8187 30.205 13.6053 30.429 13.36C30.6637 13.104 30.9143 12.8693 31.181 12.656C31.917 12.1013 32.285 11.7333 32.285 11.552C32.285 11.4987 32.2263 11.472 32.109 11.472C31.7143 11.472 31.1277 11.6853 30.349 12.112C29.5703 12.5387 28.7063 13.232 27.757 14.192C27.693 14.256 27.5703 14.288 27.389 14.288C27.2183 14.288 27.133 14.24 27.133 14.144C27.133 14.112 27.501 13.7173 28.237 12.96C28.973 12.2027 29.341 11.712 29.341 11.488C29.341 11.4347 29.3037 11.408 29.229 11.408C29.165 11.408 29.021 11.4773 28.797 11.616C28.5837 11.7547 28.2477 11.9787 27.789 12.288C27.341 12.5867 26.957 12.8373 26.637 13.04L26.589 12.816C26.749 12.7093 26.9677 12.56 27.245 12.368C27.5223 12.176 27.7517 12.0213 27.933 11.904C28.1143 11.776 28.3117 11.6427 28.525 11.504C28.941 11.248 29.261 11.12 29.485 11.12ZM35.1786 14.032C35.584 14.032 36.1226 13.8293 36.7946 13.424C37.4773 13.008 38.0426 12.608 38.4906 12.224C38.9493 11.84 39.1786 11.616 39.1786 11.552C39.1786 11.488 39.0986 11.4347 38.9386 11.392C38.7893 11.3493 38.5813 11.328 38.3146 11.328C38.048 11.328 37.696 11.4347 37.2586 11.648C36.8213 11.8507 36.4426 12.096 36.1226 12.384C35.8026 12.672 35.536 12.9547 35.3226 13.232C35.1093 13.5093 35.0026 13.712 35.0026 13.84C35.0026 13.968 35.0613 14.032 35.1786 14.032ZM39.4666 11.344C39.68 11.1733 39.7973 11.088 39.8186 11.088C40.1066 11.12 40.256 11.1467 40.2666 11.168C40.2773 11.1787 40.2826 11.1947 40.2826 11.216C40.2826 11.2373 40.24 11.3067 40.1546 11.424C40.0693 11.5307 39.8186 11.792 39.4026 12.208C38.368 13.2213 37.8506 13.8347 37.8506 14.048C37.8506 14.1333 37.888 14.176 37.9626 14.176C38.4746 14.176 39.4346 13.6907 40.8426 12.72L40.8746 12.96C39.456 13.888 38.4533 14.352 37.8666 14.352C37.5786 14.352 37.4346 14.2187 37.4346 13.952C37.4346 13.6747 37.6 13.3173 37.9306 12.88C36.672 13.808 35.6906 14.2773 34.9866 14.288C34.7306 14.288 34.6026 14.1333 34.6026 13.824C34.6026 13.2693 34.9546 12.6773 35.6586 12.048C36.3733 11.4187 37.312 11.104 38.4746 11.104C38.8586 11.104 39.1893 11.184 39.4666 11.344ZM49.8309 12.944C49.8309 13.1573 50.0175 13.264 50.3909 13.264C51.1695 13.264 52.3109 12.5547 53.8149 11.136C52.7375 11.1467 51.8042 11.3653 51.0149 11.792C50.2255 12.208 49.8309 12.592 49.8309 12.944ZM64.0549 2.32C64.7055 2.40533 65.3509 2.448 65.9909 2.448C66.6415 2.448 67.2762 2.304 67.8949 2.016C68.5135 1.71733 68.8229 1.42933 68.8229 1.152C68.8229 0.906666 68.5509 0.783999 68.0069 0.783999C66.8335 0.783999 65.5162 1.296 64.0549 2.32ZM54.7749 11.04C56.2255 11.2213 56.9775 11.8933 57.0309 13.056C57.5855 12.416 57.8629 11.7653 57.8629 11.104C57.8629 10.3253 57.4415 9.728 56.5989 9.312C55.7775 10.112 55.1695 10.688 54.7749 11.04ZM46.8869 20.336C46.8869 20.6133 46.9882 20.8107 47.1909 20.928C47.3935 21.056 47.6229 21.12 47.8789 21.12C48.7642 21.12 49.8469 20.7093 51.1269 19.888C52.4175 19.0667 53.5855 18.0693 54.6309 16.896C55.6869 15.7227 56.3482 14.656 56.6149 13.696C55.5375 14.6347 53.5269 15.7867 50.5829 17.152C49.6122 17.6 48.7535 18.112 48.0069 18.688C47.2602 19.264 46.8869 19.8133 46.8869 20.336ZM56.6469 1.616C55.2709 1.616 54.0975 1.97867 53.1269 2.704C52.1562 3.41867 51.6709 4.13867 51.6709 4.864C51.6709 5.20533 51.8095 5.47733 52.0869 5.68C52.3642 5.88267 52.7695 5.984 53.3029 5.984C54.3162 5.984 55.5269 5.616 56.9349 4.88C58.3429 4.144 59.5589 3.24267 60.5829 2.176L60.0229 2.064C59.7562 2.01067 59.5642 1.97333 59.4469 1.952C59.3295 1.92 59.1535 1.88267 58.9189 1.84C58.6842 1.79733 58.4922 1.76533 58.3429 1.744C58.1935 1.72267 58.0175 1.70133 57.8149 1.68C57.4095 1.63733 57.0202 1.616 56.6469 1.616ZM52.7909 2.544C53.2922 2.20267 53.9589 1.92533 54.7909 1.712C55.6229 1.49867 56.4922 1.392 57.3989 1.392C58.3055 1.392 59.4842 1.52533 60.9349 1.792C61.3295 1.312 61.6229 0.911999 61.8149 0.591999L61.9589 0.671999C61.7562 1.03467 61.4789 1.41867 61.1269 1.824C62.3215 2.03733 63.1055 2.176 63.4789 2.24C65.1749 1.14133 66.7322 0.591999 68.1509 0.591999C68.7909 0.591999 69.1109 0.751999 69.1109 1.072C69.1109 1.424 68.7322 1.78667 67.9749 2.16C67.2282 2.52267 66.3002 2.704 65.1909 2.704C64.5615 2.704 64.0282 2.68267 63.5909 2.64C62.5669 3.41867 61.4309 4.42133 60.1829 5.648C59.7455 6.08533 59.1429 6.69867 58.3749 7.488C57.6175 8.26667 57.0735 8.82133 56.7429 9.152C57.6602 9.61067 58.1189 10.2293 58.1189 11.008C58.1189 11.7867 57.7615 12.5493 57.0469 13.296C57.0255 14.0427 56.7269 14.8853 56.1509 15.824C55.5855 16.7627 54.8762 17.6373 54.0229 18.448C53.1695 19.2587 52.1722 19.936 51.0309 20.48C49.9002 21.0347 48.8122 21.312 47.7669 21.312C47.4255 21.312 47.1535 21.216 46.9509 21.024C46.7589 20.8427 46.6629 20.6507 46.6629 20.448C46.6629 19.9253 46.9135 19.4133 47.4149 18.912C47.9162 18.4213 48.5722 17.9573 49.3829 17.52C50.1935 17.0933 51.0309 16.6773 51.8949 16.272C54.2095 15.2053 55.8042 14.2613 56.6789 13.44C56.7109 13.2587 56.7269 13.0933 56.7269 12.944C56.7269 11.92 56.0229 11.3333 54.6149 11.184C52.8335 12.7307 51.3722 13.504 50.2309 13.504C49.8362 13.504 49.6389 13.36 49.6389 13.072C49.6389 12.6347 50.0389 12.1813 50.8389 11.712C51.6495 11.2427 52.6949 11.0027 53.9749 10.992C54.3695 10.6187 55.0202 9.968 55.9269 9.04C55.2655 8.848 54.4975 8.752 53.6229 8.752C52.7589 8.752 51.8949 8.912 51.0309 9.232C50.1775 9.552 49.4575 9.95733 48.8709 10.448C48.2842 10.928 47.8095 11.4507 47.4469 12.016C47.0949 12.5707 46.9189 13.1147 46.9189 13.648C46.9189 14.1707 47.1002 14.5653 47.4629 14.832C47.8255 15.1093 48.3802 15.248 49.1269 15.248C49.8735 15.248 50.7962 15.008 51.8949 14.528C52.9935 14.048 53.9109 13.4507 54.6469 12.736L54.7589 12.864C54.2042 13.4507 53.3135 14.0213 52.0869 14.576C50.8709 15.1413 49.7829 15.424 48.8229 15.424C47.3935 15.424 46.6789 14.752 46.6789 13.408C46.6789 12.8853 46.8389 12.3467 47.1589 11.792C47.4789 11.2373 47.9322 10.72 48.5189 10.24C49.1055 9.76 49.8789 9.36533 50.8389 9.056C51.7989 8.74667 52.7482 8.592 53.6869 8.592C54.6255 8.592 55.4255 8.688 56.0869 8.88C57.0789 7.856 57.8309 7.088 58.3429 6.576C58.8549 6.064 59.5642 5.40267 60.4709 4.592C61.3882 3.77067 62.2202 3.09867 62.9669 2.576C62.2735 2.49067 61.5429 2.368 60.7749 2.208C59.7829 3.25333 58.5882 4.17067 57.1909 4.96C55.7935 5.74933 54.4602 6.144 53.1909 6.144C52.5615 6.144 52.0762 6.016 51.7349 5.76C51.4042 5.49333 51.2389 5.168 51.2389 4.784C51.2389 4.4 51.3722 4.016 51.6389 3.632C51.9162 3.248 52.3002 2.88533 52.7909 2.544ZM60.6349 14.032C61.0402 14.032 61.5789 13.8293 62.2509 13.424C62.9335 13.008 63.4989 12.608 63.9469 12.224C64.4055 11.84 64.6349 11.616 64.6349 11.552C64.6349 11.488 64.5549 11.4347 64.3949 11.392C64.2455 11.3493 64.0375 11.328 63.7709 11.328C63.5042 11.328 63.1522 11.4347 62.7149 11.648C62.2775 11.8507 61.8989 12.096 61.5789 12.384C61.2589 12.672 60.9922 12.9547 60.7789 13.232C60.5655 13.5093 60.4589 13.712 60.4589 13.84C60.4589 13.968 60.5175 14.032 60.6349 14.032ZM64.9229 11.344C65.1362 11.1733 65.2535 11.088 65.2749 11.088C65.5629 11.12 65.7122 11.1467 65.7229 11.168C65.7335 11.1787 65.7389 11.1947 65.7389 11.216C65.7389 11.2373 65.6962 11.3067 65.6109 11.424C65.5255 11.5307 65.2749 11.792 64.8589 12.208C63.8242 13.2213 63.3069 13.8347 63.3069 14.048C63.3069 14.1333 63.3442 14.176 63.4189 14.176C63.9309 14.176 64.8909 13.6907 66.2989 12.72L66.3309 12.96C64.9122 13.888 63.9095 14.352 63.3229 14.352C63.0349 14.352 62.8909 14.2187 62.8909 13.952C62.8909 13.6747 63.0562 13.3173 63.3869 12.88C62.1282 13.808 61.1469 14.2773 60.4429 14.288C60.1869 14.288 60.0589 14.1333 60.0589 13.824C60.0589 13.2693 60.4109 12.6773 61.1149 12.048C61.8295 11.4187 62.7682 11.104 63.9309 11.104C64.3149 11.104 64.6455 11.184 64.9229 11.344ZM64.2569 18.432C63.9689 18.656 63.7609 18.8693 63.6329 19.072C63.5049 19.2853 63.4409 19.5093 63.4409 19.744C63.4409 19.9787 63.5582 20.096 63.7929 20.096C64.3689 20.096 66.0595 18.6667 68.8649 15.808C66.9769 16.7147 65.8089 17.3227 65.3609 17.632C64.9022 17.9413 64.5342 18.208 64.2569 18.432ZM63.6809 20.32C63.3715 20.32 63.2169 20.144 63.2169 19.792C63.2169 19.44 63.3769 19.0773 63.6969 18.704C64.0169 18.3413 64.4915 17.968 65.1209 17.584C66.1129 16.9867 67.4409 16.2827 69.1049 15.472C69.1795 15.44 69.2382 15.4133 69.2809 15.392C69.4622 15.2107 69.7502 14.9067 70.1449 14.48C70.5502 14.0533 70.9022 13.6907 71.2009 13.392C70.2409 14.0213 69.5742 14.336 69.2009 14.336C68.8275 14.336 68.6409 14.2027 68.6409 13.936C68.6409 13.5733 69.1209 13.0027 70.0809 12.224C70.3902 11.968 70.5449 11.8027 70.5449 11.728C70.5449 11.6427 70.5022 11.6 70.4169 11.6C70.2355 11.6 69.9315 11.728 69.5049 11.984C69.0889 12.24 68.8275 12.4 68.7209 12.464C68.6142 12.528 68.4542 12.6293 68.2409 12.768C68.0382 12.896 67.8942 12.9867 67.8089 13.04L67.7609 12.816C69.2222 11.856 70.1609 11.376 70.5769 11.376C70.8542 11.376 70.9929 11.5307 70.9929 11.84C70.9929 12.1707 70.5129 12.72 69.5529 13.488C69.2329 13.744 69.0729 13.9147 69.0729 14C69.0729 14.0533 69.1422 14.08 69.2809 14.08C69.6009 14.08 70.0915 13.872 70.7529 13.456C71.4142 13.0293 71.9689 12.608 72.4169 12.192C73.0675 11.584 73.4195 11.28 73.4729 11.28C73.5369 11.28 73.6275 11.296 73.7449 11.328C73.8729 11.36 73.9369 11.3973 73.9369 11.44C73.9369 11.472 73.8622 11.5573 73.7129 11.696C73.5635 11.824 72.5502 12.8267 70.6729 14.704C71.7182 14.1707 72.5342 13.7227 73.1209 13.36C73.7182 12.9973 74.0649 12.784 74.1609 12.72L74.1929 12.96C73.7129 13.2373 73.3715 13.4453 73.1689 13.584C72.4222 14.0427 71.4409 14.5653 70.2249 15.152C68.6462 16.7307 67.3022 17.984 66.1929 18.912C65.0729 19.8507 64.2355 20.32 63.6809 20.32ZM75.8349 14.032C76.2082 14.032 76.7255 13.84 77.3869 13.456C78.0482 13.0613 78.6189 12.6667 79.0989 12.272C79.5895 11.8667 79.8349 11.632 79.8349 11.568C79.8349 11.4933 79.7549 11.4347 79.5949 11.392C79.4455 11.3493 79.2375 11.328 78.9709 11.328C78.7042 11.328 78.3522 11.4347 77.9149 11.648C77.4775 11.8507 77.0989 12.096 76.7789 12.384C76.4589 12.672 76.1922 12.9547 75.9789 13.232C75.7655 13.5093 75.6589 13.712 75.6589 13.84C75.6589 13.968 75.7175 14.032 75.8349 14.032ZM83.9949 8.256C83.5575 8.68267 83.0402 9.19467 82.4429 9.792C81.8455 10.3787 81.3709 10.8533 81.0189 11.216C80.6775 11.568 80.3895 11.856 80.1549 12.08C79.9309 12.304 79.7389 12.5013 79.5789 12.672C79.4189 12.832 79.2482 13.008 79.0669 13.2C78.8855 13.392 78.7469 13.5627 78.6509 13.712C78.5549 13.8507 78.5069 13.9627 78.5069 14.048C78.5069 14.1333 78.5442 14.176 78.6189 14.176C79.1309 14.176 80.0909 13.6907 81.4989 12.72L81.5309 12.96C80.1122 13.888 79.1095 14.352 78.5229 14.352C78.2349 14.352 78.0909 14.2187 78.0909 13.952C78.0909 13.664 78.2615 13.3067 78.6029 12.88C77.3442 13.808 76.3575 14.2773 75.6429 14.288C75.3869 14.288 75.2589 14.1333 75.2589 13.824C75.2589 13.2693 75.6109 12.6773 76.3149 12.048C77.0295 11.4187 77.9682 11.104 79.1309 11.104C79.5255 11.104 79.8615 11.184 80.1389 11.344C80.1922 11.3013 80.2562 11.2427 80.3309 11.168L87.0189 4.688C87.0829 4.624 87.2109 4.592 87.4029 4.592C87.5949 4.592 87.6909 4.65067 87.6909 4.768C87.6909 4.81067 87.6642 4.85867 87.6109 4.912C87.5682 4.95467 87.4135 5.09333 87.1469 5.328C86.8802 5.56267 86.6189 5.79733 86.3629 6.032C86.1175 6.256 85.7709 6.576 85.3229 6.992C84.8749 7.408 84.4322 7.82933 83.9949 8.256ZM84.7049 11.168C84.7582 11.1253 84.9022 11.1147 85.1369 11.136C85.2542 11.1573 85.3129 11.184 85.3129 11.216C85.3129 11.2373 85.2862 11.28 85.2329 11.344C85.1795 11.408 84.9235 11.664 84.4649 12.112C83.5155 13.04 83.0409 13.6213 83.0409 13.856C83.0409 13.9093 83.0729 13.936 83.1369 13.936C83.4995 13.936 84.8169 13.168 87.0889 11.632L87.5209 11.28C87.5742 11.2373 87.6755 11.2213 87.8249 11.232C87.9742 11.2427 88.0489 11.296 88.0489 11.392C88.0489 11.4347 88.0329 11.472 88.0009 11.504C86.5075 12.848 85.7609 13.6587 85.7609 13.936C85.7609 14.0533 85.8462 14.112 86.0169 14.112C86.1875 14.112 86.4169 14.048 86.7049 13.92C86.9929 13.792 87.2489 13.664 87.4729 13.536C87.6969 13.3973 87.9635 13.232 88.2729 13.04C88.5929 12.8373 88.7635 12.7307 88.7849 12.72L88.8169 12.96C88.3262 13.28 87.7662 13.6 87.1369 13.92C86.5075 14.24 86.0275 14.4 85.6969 14.4C85.3769 14.4 85.2169 14.2667 85.2169 14C85.2169 13.6267 85.5049 13.1413 86.0809 12.544C84.4062 13.632 83.3715 14.176 82.9769 14.176C82.7422 14.176 82.6249 14.0373 82.6249 13.76C82.6249 13.1733 83.3182 12.3093 84.7049 11.168ZM99.8164 4.768C99.283 4.768 98.035 5.62667 96.0724 7.344C94.1097 9.06133 92.5204 10.64 91.3044 12.08C92.723 11.1093 94.5097 9.744 96.6644 7.984C98.819 6.21333 99.8964 5.15733 99.8964 4.816C99.8964 4.784 99.8697 4.768 99.8164 4.768ZM90.8244 12.672C90.3977 13.2373 90.1844 13.6213 90.1844 13.824C90.1844 14.016 90.275 14.112 90.4564 14.112C90.9577 14.112 91.875 13.648 93.2084 12.72L93.2404 12.96C91.8217 13.888 90.819 14.352 90.2324 14.352C89.9444 14.352 89.8004 14.2187 89.8004 13.952C89.8004 13.3653 90.483 12.3093 91.8484 10.784C93.2244 9.248 94.739 7.82933 96.3924 6.528C98.0564 5.216 99.235 4.56 99.9284 4.56C100.056 4.56 100.12 4.608 100.12 4.704C100.12 4.96 99.859 5.36533 99.3364 5.92C98.8244 6.464 98.131 7.088 97.2564 7.792C96.3817 8.496 95.5657 9.136 94.8084 9.712C94.051 10.288 93.2297 10.9013 92.3444 11.552C91.459 12.192 90.9524 12.5653 90.8244 12.672ZM104.229 4.768C103.696 4.768 102.448 5.62667 100.485 7.344C98.5222 9.06133 96.9329 10.64 95.7169 12.08C97.1355 11.1093 98.9222 9.744 101.077 7.984C103.232 6.21333 104.309 5.15733 104.309 4.816C104.309 4.784 104.282 4.768 104.229 4.768ZM95.2369 12.672C94.8102 13.2373 94.5969 13.6213 94.5969 13.824C94.5969 14.016 94.6875 14.112 94.8689 14.112C95.3702 14.112 96.2875 13.648 97.6209 12.72L97.6529 12.96C96.2342 13.888 95.2315 14.352 94.6449 14.352C94.3569 14.352 94.2129 14.2187 94.2129 13.952C94.2129 13.3653 94.8955 12.3093 96.2609 10.784C97.6369 9.248 99.1515 7.82933 100.805 6.528C102.469 5.216 103.648 4.56 104.341 4.56C104.469 4.56 104.533 4.608 104.533 4.704C104.533 4.96 104.272 5.36533 103.749 5.92C103.237 6.464 102.544 7.088 101.669 7.792C100.794 8.496 99.9782 9.136 99.2209 9.712C98.4635 10.288 97.6422 10.9013 96.7569 11.552C95.8715 12.192 95.3649 12.5653 95.2369 12.672ZM102.481 9.776C102.481 9.92533 102.396 10.0693 102.225 10.208C102.055 10.3467 101.895 10.416 101.745 10.416C101.607 10.416 101.537 10.3573 101.537 10.24C101.537 10.1227 101.623 9.98933 101.793 9.84C101.964 9.68 102.119 9.6 102.257 9.6C102.407 9.6 102.481 9.65867 102.481 9.776ZM101.121 11.504C99.6814 12.8053 98.9614 13.6213 98.9614 13.952C98.9614 14.0587 99.036 14.112 99.1854 14.112C99.324 14.112 99.5374 14.048 99.8254 13.92C100.113 13.792 100.369 13.664 100.593 13.536C100.817 13.3973 101.084 13.232 101.393 13.04C101.713 12.8373 101.884 12.7307 101.905 12.72L101.937 12.96C101.447 13.28 100.887 13.6 100.257 13.92C99.628 14.24 99.1534 14.4 98.8334 14.4C98.5027 14.4 98.3374 14.2667 98.3374 14C98.3374 13.776 98.5294 13.44 98.9134 12.992C99.2974 12.5333 99.6814 12.1333 100.065 11.792L100.641 11.28C100.695 11.2373 100.796 11.2213 100.945 11.232C101.095 11.2427 101.169 11.296 101.169 11.392C101.169 11.4347 101.153 11.472 101.121 11.504ZM106.257 11.12C106.481 11.12 106.593 11.2427 106.593 11.488C106.593 11.7227 106.422 12.0693 106.081 12.528C107.297 11.6853 108.273 11.264 109.009 11.264C109.297 11.264 109.441 11.3867 109.441 11.632C109.441 11.8773 109.334 12.1333 109.121 12.4C108.908 12.656 108.673 12.88 108.417 13.072C107.734 13.5627 107.393 13.872 107.393 14C107.393 14.0747 107.452 14.112 107.569 14.112C107.697 14.112 107.905 14.048 108.193 13.92C108.481 13.792 108.737 13.664 108.961 13.536C109.185 13.3973 109.452 13.232 109.761 13.04C110.081 12.8373 110.252 12.7307 110.273 12.72L110.305 12.96C108.865 13.92 107.857 14.4 107.281 14.4C107.004 14.4 106.865 14.2667 106.865 14C106.865 13.8187 106.977 13.6053 107.201 13.36C107.436 13.104 107.686 12.8693 107.953 12.656C108.689 12.1013 109.057 11.7333 109.057 11.552C109.057 11.4987 108.998 11.472 108.881 11.472C108.486 11.472 107.9 11.6853 107.121 12.112C106.342 12.5387 105.478 13.232 104.529 14.192C104.465 14.256 104.342 14.288 104.161 14.288C103.99 14.288 103.905 14.24 103.905 14.144C103.905 14.112 104.273 13.7173 105.009 12.96C105.745 12.2027 106.113 11.712 106.113 11.488C106.113 11.4347 106.076 11.408 106.001 11.408C105.937 11.408 105.793 11.4773 105.569 11.616C105.356 11.7547 105.02 11.9787 104.561 12.288C104.113 12.5867 103.729 12.8373 103.409 13.04L103.361 12.816C103.521 12.7093 103.74 12.56 104.017 12.368C104.294 12.176 104.524 12.0213 104.705 11.904C104.886 11.776 105.084 11.6427 105.297 11.504C105.713 11.248 106.033 11.12 106.257 11.12ZM111.95 14.032C112.356 14.032 112.895 13.8293 113.567 13.424C114.249 13.008 114.815 12.608 115.263 12.224C115.721 11.84 115.951 11.616 115.951 11.552C115.951 11.488 115.871 11.4347 115.711 11.392C115.561 11.3493 115.353 11.328 115.087 11.328C114.82 11.328 114.468 11.4347 114.031 11.648C113.593 11.8507 113.215 12.096 112.895 12.384C112.575 12.672 112.308 12.9547 112.095 13.232C111.881 13.5093 111.774 13.712 111.774 13.84C111.774 13.968 111.833 14.032 111.95 14.032ZM116.239 11.344C116.452 11.1733 116.569 11.088 116.591 11.088C116.879 11.12 117.028 11.1467 117.039 11.168C117.049 11.1787 117.055 11.1947 117.055 11.216C117.055 11.2373 117.012 11.3067 116.927 11.424C116.841 11.5307 116.591 11.792 116.174 12.208C115.14 13.2213 114.623 13.8347 114.623 14.048C114.623 14.1333 114.66 14.176 114.735 14.176C115.247 14.176 116.207 13.6907 117.615 12.72L117.647 12.96C116.228 13.888 115.225 14.352 114.639 14.352C114.351 14.352 114.207 14.2187 114.207 13.952C114.207 13.6747 114.372 13.3173 114.703 12.88C113.444 13.808 112.463 14.2773 111.758 14.288C111.502 14.288 111.374 14.1333 111.374 13.824C111.374 13.2693 111.726 12.6773 112.431 12.048C113.145 11.4187 114.084 11.104 115.247 11.104C115.631 11.104 115.961 11.184 116.239 11.344Z" fill="#FAEEFB"/>
</svg>
