<svg width="29" height="30" viewBox="0 0 29 30" fill="none" xmlns="http://www.w3.org/2000/svg">
<path d="M12.3729 7.04402C11.2276 7.28005 10.4988 7.76086 10.3339 8.40776C10.0476 9.46554 10.7417 10.1387 12.1386 10.1387C12.5551 10.1387 12.6766 10.1124 12.6766 10.0075C12.6766 9.91138 12.5725 9.87641 12.2861 9.87641C11.7482 9.87641 11.2189 9.64912 11.0714 9.34315C10.8111 8.83612 10.976 8.16299 11.4532 7.75212C12.2428 7.08773 14.0735 7.08773 14.4726 7.76086C14.6635 8.07557 14.6895 8.52141 14.5507 8.87109C14.2644 9.55296 12.6158 10.9254 12.0779 10.9254C11.7048 10.9254 11.0367 11.1702 10.6983 11.4237C10.4554 11.6073 9.98687 12.3241 10.117 12.3241C10.2385 12.3241 11.5747 11.7472 12.0258 11.5024C12.4944 11.2489 12.5811 11.2227 12.8848 11.3013C13.5789 11.4762 14.1516 12.3766 14.1516 13.3032C14.1516 13.6966 14.1256 13.6966 13.3707 13.4431C12.8935 13.2858 12.6072 13.2508 11.5053 13.2508C10.3079 13.2508 10.143 13.2683 9.47495 13.4956C8.96304 13.6704 8.65069 13.8365 8.39907 14.0638C8.07804 14.3698 8.04333 14.4397 8.00863 14.9118C7.9826 15.3489 8.00863 15.4712 8.18216 15.7335C8.49451 16.1968 9.37084 16.5378 10.3773 16.5815C11.9391 16.6601 13.3013 16.1619 14.221 15.1653C14.516 14.8506 14.7676 14.5971 14.785 14.5971C14.8023 14.5971 14.8891 14.7544 14.9758 14.9467C15.2622 15.5936 15.1407 16.2842 14.2991 18.7932C13.4748 21.2409 13.3447 21.8966 13.5789 22.3686C13.7438 22.6921 14.2904 22.9806 14.7242 22.9893C15.1667 22.9893 16.0691 22.6659 16.5723 22.3249C17.0842 21.9752 18.0039 21.0661 18.325 20.5853C18.5419 20.2618 18.7241 20.1744 18.62 20.4279C18.5853 20.5153 18.5419 20.8912 18.5159 21.2584C18.4031 22.8669 19.1839 23.4439 20.3813 22.6396C21.3791 21.9665 23.0016 20.0345 23.0016 19.51C23.0016 19.3264 22.8975 19.4313 22.4029 20.1045C20.7891 22.29 19.8 23.0505 19.3922 22.4211C19.1666 22.0714 19.1579 21.5381 19.3575 20.323C19.557 19.0991 19.6959 18.7145 20.2078 17.884C20.5982 17.2546 21.0928 16.1094 21.3444 15.2527C21.5526 14.5446 21.622 13.7141 21.4745 13.6617C21.3184 13.6092 20.5982 14.6408 20.1817 15.5237C19.8173 16.2668 19.0191 18.5484 18.8803 19.2303C18.8022 19.6062 17.8391 20.8388 17.0409 21.5906C15.9563 22.6221 14.8978 22.8494 14.4466 22.1588C14.3164 21.9578 14.3078 21.8616 14.4032 21.3546C14.4639 21.0399 14.7936 19.9733 15.1407 18.9768C15.8522 16.9574 16.0864 16.0657 15.9997 15.6286C15.9216 15.174 15.67 14.7457 15.3056 14.4135L14.9672 14.1075L15.0019 13.5131C15.0539 12.7438 14.8978 12.2367 14.4813 11.7559C14.0995 11.3188 13.8045 11.1352 13.31 11.0216C13.0323 10.9604 13.0063 10.9429 13.1538 10.8817C13.5269 10.7244 14.2817 10.1911 14.7329 9.76276C15.3316 9.19454 15.5398 8.79241 15.5398 8.21544C15.5398 7.83954 15.4964 7.72589 15.2969 7.51609C14.9411 7.16641 14.2731 6.99157 13.336 7.00031C12.9022 7.00905 12.4683 7.02654 12.3729 7.04402ZM13.2319 13.6791C14.0128 13.889 14.0735 13.9327 13.9607 14.2736C13.8045 14.7282 12.8067 15.6636 12.1126 16.0045C11.5573 16.2755 11.4445 16.3017 10.7244 16.3017C10.0823 16.3017 9.88275 16.2668 9.57907 16.1007C9.20598 15.9083 9.20598 15.8996 9.20598 15.4188C9.20598 15.1565 9.26672 14.8243 9.32745 14.6932C9.54437 14.2911 10.0389 13.9152 10.5769 13.7666C10.8458 13.6879 11.1148 13.6092 11.1582 13.5917C11.4011 13.5043 12.7894 13.5655 13.2319 13.6791Z" fill="#5F4E75"/>
</svg>
