<svg width="215" height="46" viewBox="0 0 215 46" fill="none" xmlns="http://www.w3.org/2000/svg">
<path d="M11.544 21.74H11.674C11.7953 21.74 11.908 21.6967 12.012 21.61C12.116 21.506 12.2027 21.3847 12.272 21.246C12.3587 21.09 12.4193 20.934 12.454 20.778C12.4887 20.6047 12.506 20.4487 12.506 20.31V13.238H4.186V20.31C4.186 20.4487 4.20333 20.6047 4.238 20.778C4.27267 20.934 4.32467 21.0813 4.394 21.22C4.46333 21.3587 4.54133 21.48 4.628 21.584C4.732 21.688 4.85333 21.74 4.992 21.74H5.122V22H1.482V21.74H1.612C1.73333 21.74 1.846 21.6967 1.95 21.61C2.054 21.506 2.14067 21.3847 2.21 21.246C2.29667 21.09 2.35733 20.934 2.392 20.778C2.42667 20.6047 2.444 20.4487 2.444 20.31V6.452C2.444 6.33067 2.42667 6.192 2.392 6.036C2.35733 5.88 2.30533 5.73267 2.236 5.594C2.16667 5.45533 2.08 5.34267 1.976 5.256C1.872 5.152 1.75067 5.1 1.612 5.1H1.482V4.84H5.122V5.1H4.992C4.85333 5.1 4.732 5.152 4.628 5.256C4.524 5.34267 4.43733 5.45533 4.368 5.594C4.316 5.73267 4.27267 5.88 4.238 6.036C4.20333 6.192 4.186 6.33067 4.186 6.452V12.328H12.506V6.452C12.506 6.33067 12.4887 6.192 12.454 6.036C12.4193 5.88 12.3673 5.73267 12.298 5.594C12.2287 5.45533 12.142 5.34267 12.038 5.256C11.934 5.152 11.8127 5.1 11.674 5.1H11.544V4.84H15.184V5.1H15.054C14.9153 5.1 14.794 5.152 14.69 5.256C14.586 5.34267 14.4993 5.45533 14.43 5.594C14.378 5.73267 14.3347 5.88 14.3 6.036C14.2653 6.192 14.248 6.33067 14.248 6.452V20.31C14.248 20.4487 14.2653 20.6047 14.3 20.778C14.352 20.934 14.4127 21.0813 14.482 21.22C14.5513 21.3587 14.6293 21.48 14.716 21.584C14.82 21.688 14.9327 21.74 15.054 21.74H15.184V22H11.544V21.74ZM18.9558 4.84H22.5698V5.1H22.4138C22.2232 5.1 22.0932 5.16067 22.0238 5.282C21.9545 5.386 21.9198 5.49867 21.9198 5.62C21.9198 5.70667 21.9285 5.78467 21.9458 5.854C21.9632 5.92333 21.9805 5.97533 21.9978 6.01L26.4438 15.734L30.4218 6.296C30.4392 6.26133 30.4652 6.192 30.4998 6.088C30.5345 5.96667 30.5518 5.854 30.5518 5.75C30.5518 5.50733 30.4652 5.34267 30.2918 5.256C30.1185 5.152 29.9885 5.1 29.9018 5.1V4.84H32.6838V5.1C32.3718 5.1 32.1292 5.18667 31.9558 5.36C31.7998 5.516 31.6785 5.68067 31.5918 5.854L25.3518 20.778C25.1438 21.2807 24.8665 21.6533 24.5198 21.896C24.1732 22.1213 23.8005 22.234 23.4018 22.234C23.1418 22.234 22.9078 22.1907 22.6998 22.104C22.4918 22.0347 22.3098 21.948 22.1538 21.844C21.9978 21.74 21.8765 21.6447 21.7898 21.558C21.7205 21.4713 21.6858 21.428 21.6858 21.428L22.3358 19.998C22.4745 20.3273 22.6565 20.5873 22.8818 20.778C23.1072 20.9513 23.3412 21.038 23.5838 21.038C23.7398 21.038 23.8958 20.986 24.0518 20.882C24.2252 20.7607 24.3725 20.5787 24.4938 20.336L25.5078 17.866L20.0998 5.932C19.8572 5.412 19.4758 5.13467 18.9558 5.1V4.84ZM50.6744 21.74H50.8044C50.9257 21.74 51.0384 21.688 51.1424 21.584C51.2464 21.48 51.3331 21.3587 51.4024 21.22C51.4891 21.0813 51.5497 20.934 51.5844 20.778C51.6191 20.6047 51.6364 20.4487 51.6364 20.31V6.634L44.9284 22.286L38.5584 7.44V20.31C38.5584 20.4487 38.5757 20.6047 38.6104 20.778C38.6451 20.934 38.6971 21.0813 38.7664 21.22C38.8531 21.3587 38.9484 21.48 39.0524 21.584C39.1564 21.688 39.2777 21.74 39.4164 21.74H39.5464V22H36.7124V21.74H36.8424C36.9637 21.74 37.0764 21.688 37.1804 21.584C37.2844 21.48 37.3711 21.3587 37.4404 21.22C37.5097 21.0813 37.5617 20.934 37.5964 20.778C37.6311 20.6047 37.6484 20.4487 37.6484 20.31V6.452C37.6484 6.33067 37.6311 6.192 37.5964 6.036C37.5617 5.88 37.5097 5.73267 37.4404 5.594C37.3711 5.45533 37.2844 5.34267 37.1804 5.256C37.0764 5.152 36.9637 5.1 36.8424 5.1H36.7124V4.84H39.3644L45.3964 19.062L51.4284 4.84H54.3664V5.1H54.2364C54.0977 5.1 53.9764 5.152 53.8724 5.256C53.7684 5.34267 53.6731 5.45533 53.5864 5.594C53.5171 5.73267 53.4651 5.88 53.4304 6.036C53.3957 6.192 53.3784 6.33067 53.3784 6.452V20.31C53.3784 20.4487 53.3957 20.6047 53.4304 20.778C53.4651 20.934 53.5171 21.0813 53.5864 21.22C53.6731 21.3587 53.7684 21.48 53.8724 21.584C53.9764 21.688 54.0977 21.74 54.2364 21.74H54.3664V22H50.6744V21.74ZM59.4973 21.74H59.6273C59.766 21.74 59.8873 21.6967 59.9913 21.61C60.0953 21.506 60.182 21.3847 60.2513 21.246C60.338 21.1073 60.3987 20.96 60.4333 20.804C60.4853 20.648 60.5113 20.5007 60.5113 20.362V6.452C60.5113 6.33067 60.4853 6.192 60.4333 6.036C60.3987 5.88 60.338 5.73267 60.2513 5.594C60.182 5.45533 60.0953 5.34267 59.9913 5.256C59.8873 5.152 59.766 5.1 59.6273 5.1H59.4973V4.84H69.5073V7.258H69.2473C69.2127 6.85933 69.0567 6.51267 68.7793 6.218C68.502 5.906 68.0687 5.75 67.4793 5.75H62.2533V12.328H66.5693C66.968 12.328 67.2973 12.2067 67.5573 11.964C67.8347 11.7213 67.9733 11.4353 67.9733 11.106H68.2333V14.356H67.9733C67.9733 14.044 67.8433 13.7753 67.5833 13.55C67.3233 13.3247 66.9853 13.212 66.5693 13.212H62.2533V21.09H67.9473C68.2767 21.09 68.5627 21.012 68.8053 20.856C69.048 20.7 69.2473 20.518 69.4033 20.31C69.5767 20.0847 69.698 19.8507 69.7673 19.608C69.854 19.348 69.8973 19.1313 69.8973 18.958H70.1573V22H59.4973V21.74ZM74.6905 4.84H78.3825C80.3065 4.84 81.7625 5.21267 82.7505 5.958C83.7558 6.686 84.2585 7.726 84.2585 9.078C84.2585 9.806 84.0852 10.456 83.7385 11.028C83.3918 11.6 82.9325 12.0853 82.3605 12.484C81.8058 12.8653 81.1732 13.16 80.4625 13.368C79.7692 13.576 79.0758 13.68 78.3825 13.68H77.3945V20.31C77.3945 20.4487 77.4118 20.6047 77.4465 20.778C77.4812 20.934 77.5332 21.0813 77.6025 21.22C77.6892 21.3587 77.7758 21.48 77.8625 21.584C77.9665 21.688 78.0878 21.74 78.2265 21.74H78.3565V22H74.6905V21.74H74.8205C74.9418 21.74 75.0545 21.688 75.1585 21.584C75.2625 21.48 75.3492 21.3587 75.4185 21.22C75.4878 21.0813 75.5398 20.934 75.5745 20.778C75.6092 20.6047 75.6265 20.4487 75.6265 20.31V6.452C75.6265 6.20933 75.5572 5.932 75.4185 5.62C75.2798 5.308 75.0805 5.13467 74.8205 5.1H74.6905V4.84ZM77.3945 5.75V12.77H78.1745C78.8678 12.77 79.4832 12.6747 80.0205 12.484C80.5752 12.2933 81.0345 12.042 81.3985 11.73C81.7625 11.418 82.0398 11.0627 82.2305 10.664C82.4212 10.2653 82.5165 9.858 82.5165 9.442C82.5165 8.93933 82.4298 8.47133 82.2565 8.038C82.1005 7.58733 81.8318 7.19733 81.4505 6.868C81.0865 6.52133 80.6012 6.25267 79.9945 6.062C79.3878 5.854 78.6425 5.75 77.7585 5.75H77.3945ZM109.99 20.18C109.834 20.6307 109.591 21.0467 109.262 21.428C108.933 21.8093 108.447 22 107.806 22H107V21.74C107.104 21.74 107.243 21.714 107.416 21.662C107.589 21.5927 107.771 21.4887 107.962 21.35C108.153 21.2113 108.343 21.038 108.534 20.83C108.725 20.6047 108.889 20.3273 109.028 19.998L113.942 6.53C114.029 6.27 114.072 6.07067 114.072 5.932C114.072 5.672 113.994 5.47267 113.838 5.334C113.699 5.178 113.552 5.1 113.396 5.1V4.84H115.528L121.352 20.752C121.439 20.9947 121.603 21.22 121.846 21.428C122.089 21.6187 122.357 21.7227 122.652 21.74V22H118.934V21.74C119.073 21.74 119.211 21.688 119.35 21.584C119.506 21.4627 119.584 21.3067 119.584 21.116C119.584 21.064 119.567 20.986 119.532 20.882L114.644 7.414L109.99 20.18ZM135.951 4.58C137.303 4.58 138.516 4.82267 139.591 5.308C140.665 5.776 141.575 6.41733 142.321 7.232C143.083 8.02933 143.664 8.96533 144.063 10.04C144.479 11.0973 144.687 12.2067 144.687 13.368C144.687 14.668 144.444 15.864 143.959 16.956C143.491 18.048 142.841 18.984 142.009 19.764C141.177 20.544 140.206 21.1593 139.097 21.61C138.005 22.0433 136.835 22.26 135.587 22.26C134.252 22.26 133.047 22.0173 131.973 21.532C130.915 21.0467 130.014 20.4053 129.269 19.608C128.541 18.8107 127.977 17.892 127.579 16.852C127.18 15.812 126.981 14.7287 126.981 13.602C126.981 12.4927 127.18 11.4007 127.579 10.326C127.977 9.234 128.558 8.26333 129.321 7.414C130.101 6.56467 131.045 5.88 132.155 5.36C133.264 4.84 134.529 4.58 135.951 4.58ZM135.925 21.35C137.086 21.298 138.1 21.038 138.967 20.57C139.851 20.0847 140.587 19.478 141.177 18.75C141.766 18.0047 142.199 17.19 142.477 16.306C142.771 15.422 142.919 14.5467 142.919 13.68C142.919 12.7267 142.745 11.7647 142.399 10.794C142.052 9.82333 141.558 8.948 140.917 8.168C140.275 7.37067 139.504 6.72933 138.603 6.244C137.719 5.74133 136.722 5.49 135.613 5.49C134.538 5.49 133.576 5.73267 132.727 6.218C131.877 6.686 131.149 7.29267 130.543 8.038C129.953 8.78333 129.503 9.61533 129.191 10.534C128.879 11.4527 128.723 12.354 128.723 13.238C128.723 14.1913 128.905 15.1533 129.269 16.124C129.633 17.0773 130.135 17.944 130.777 18.724C131.418 19.504 132.172 20.1367 133.039 20.622C133.923 21.1073 134.885 21.35 135.925 21.35ZM153.182 21.74H153.312V22H149.568V21.74H149.698C149.837 21.74 149.958 21.6967 150.062 21.61C150.166 21.506 150.253 21.3847 150.322 21.246C150.409 21.1073 150.469 20.96 150.504 20.804C150.539 20.648 150.556 20.5007 150.556 20.362V6.452C150.556 6.33067 150.539 6.192 150.504 6.036C150.469 5.88 150.409 5.73267 150.322 5.594C150.253 5.45533 150.166 5.34267 150.062 5.256C149.958 5.152 149.837 5.1 149.698 5.1H149.568V4.84H159.578V7.596H159.318C159.318 6.972 159.179 6.51267 158.902 6.218C158.642 5.906 158.226 5.75 157.654 5.75H152.324V20.362C152.324 20.5007 152.341 20.648 152.376 20.804C152.411 20.96 152.463 21.1073 152.532 21.246C152.619 21.3847 152.714 21.506 152.818 21.61C152.922 21.6967 153.043 21.74 153.182 21.74Z" fill="#FAEEFB"/>
<path d="M97.022 3.93C98.114 3.93 99.094 4.126 99.962 4.518C100.83 4.896 101.565 5.414 102.167 6.072C102.783 6.716 103.252 7.472 103.574 8.34C103.91 9.194 104.078 10.09 104.078 11.028C104.078 12.078 103.882 13.044 103.49 13.926C103.112 14.808 102.587 15.564 101.915 16.194C101.243 16.824 100.459 17.321 99.563 17.685C98.681 18.035 97.736 18.21 96.728 18.21C95.65 18.21 94.677 18.014 93.809 17.622C92.955 17.23 92.227 16.712 91.625 16.068C91.037 15.424 90.582 14.682 90.26 13.842C89.938 13.002 89.777 12.127 89.777 11.217C89.777 10.321 89.938 9.439 90.26 8.571C90.582 7.689 91.051 6.905 91.667 6.219C92.297 5.533 93.06 4.98 93.956 4.56C94.852 4.14 95.874 3.93 97.022 3.93ZM97.001 17.475C97.939 17.433 98.758 17.223 99.458 16.845C100.172 16.453 100.767 15.963 101.243 15.375C101.719 14.773 102.069 14.115 102.293 13.401C102.531 12.687 102.65 11.98 102.65 11.28C102.65 10.51 102.51 9.733 102.23 8.949C101.95 8.165 101.551 7.458 101.033 6.828C100.515 6.184 99.892 5.666 99.164 5.274C98.45 4.868 97.645 4.665 96.749 4.665C95.881 4.665 95.104 4.861 94.418 5.253C93.732 5.631 93.144 6.121 92.654 6.723C92.178 7.325 91.814 7.997 91.562 8.739C91.31 9.481 91.184 10.209 91.184 10.923C91.184 11.693 91.331 12.47 91.625 13.254C91.919 14.024 92.325 14.724 92.843 15.354C93.361 15.984 93.97 16.495 94.67 16.887C95.384 17.279 96.161 17.475 97.001 17.475Z" fill="#FAEEFB"/>
<path d="M93 22L101 22" stroke="#FAEEFB"/>
<path d="M81.648 24.984C81.9253 24.952 82.144 24.8987 82.304 24.824C82.4747 24.7387 82.56 24.648 82.56 24.552C82.56 24.456 82.464 24.3867 82.272 24.344C82.2187 24.3973 82.1227 24.4987 81.984 24.648C81.8453 24.7973 81.7333 24.9093 81.648 24.984ZM80.64 25L81.344 24.312C80.7147 24.3227 80.0533 24.4027 79.36 24.552C79.6267 24.7867 80.0533 24.936 80.64 25ZM90.416 19.448C90.416 19.256 90.208 19.16 89.792 19.16C88.7573 19.16 87.664 19.5653 86.512 20.376C87.8027 20.2907 88.688 20.2107 89.168 20.136C90 19.9973 90.416 19.768 90.416 19.448ZM85.392 20.744C83.2693 20.9253 81.808 21.1707 81.008 21.48C80.0907 21.832 79.4933 22.2533 79.216 22.744C79.056 23.032 78.976 23.3307 78.976 23.64C78.976 23.9493 79.0453 24.1947 79.184 24.376C79.9733 24.184 80.7733 24.0827 81.584 24.072C83.152 22.5467 84.4213 21.4373 85.392 20.744ZM80.4 25.224C79.76 25.16 79.2853 24.968 78.976 24.648C77.4507 25.064 76.2293 25.752 75.312 26.712C74.4053 27.6613 73.952 28.584 73.952 29.48C73.952 29.8107 74.016 30.0933 74.144 30.328C74.8267 29.9653 75.5573 29.4853 76.336 28.888C77.1147 28.28 77.776 27.7253 78.32 27.224C78.864 26.7227 79.5573 26.056 80.4 25.224ZM66.72 28.744C66.72 28.8507 66.6827 28.9467 66.608 29.032C66.5333 29.1173 66.464 29.16 66.4 29.16C66.3467 29.16 66.2987 29.1547 66.256 29.144C66.2133 29.144 66.192 29.208 66.192 29.336C66.192 29.8267 66.432 30.232 66.912 30.552C67.712 31.0853 68.8587 31.352 70.352 31.352C71.4933 31.352 72.688 31.048 73.936 30.44C73.808 30.152 73.744 29.832 73.744 29.48C73.744 28.8827 73.9253 28.2693 74.288 27.64C74.6507 27 75.2267 26.3867 76.016 25.8C76.8053 25.2027 77.7387 24.7547 78.816 24.456C78.6773 24.2533 78.608 23.992 78.608 23.672C78.608 23.352 78.6827 23.0427 78.832 22.744C78.992 22.4453 79.1947 22.1893 79.44 21.976C79.696 21.7627 80.0213 21.576 80.416 21.416C80.8107 21.2453 81.2 21.112 81.584 21.016C81.968 20.9093 82.4267 20.8133 82.96 20.728C83.6213 20.632 84.576 20.536 85.824 20.44C87.3173 19.448 88.72 18.952 90.032 18.952C90.2667 18.952 90.4267 18.984 90.512 19.048C90.608 19.1013 90.656 19.224 90.656 19.416C90.656 19.608 90.544 19.784 90.32 19.944C90.096 20.0933 89.7547 20.216 89.296 20.312C88.496 20.4613 87.4507 20.584 86.16 20.68C86.1493 20.68 86.1387 20.68 86.128 20.68H86.112C85.4507 21.1707 84.6667 21.8747 83.76 22.792C83.472 23.0907 83.0507 23.528 82.496 24.104C82.7947 24.168 82.944 24.2853 82.944 24.456C82.944 24.616 82.8053 24.7707 82.528 24.92C82.2613 25.0587 81.8987 25.1547 81.44 25.208C80.16 26.52 78.9653 27.6293 77.856 28.536C76.7573 29.432 75.6 30.1467 74.384 30.68C74.896 31.1067 75.5093 31.32 76.224 31.32C77.3227 31.32 78.6773 30.7867 80.288 29.72L80.32 29.96C78.7733 31.0373 77.3973 31.576 76.192 31.576C75.7653 31.576 75.3813 31.5067 75.04 31.368C74.7093 31.24 74.48 31.1067 74.352 30.968L74.16 30.776C72.8373 31.3093 71.5093 31.576 70.176 31.576C69.408 31.576 68.5813 31.4587 67.696 31.224C67.1947 31.0853 66.784 30.8613 66.464 30.552C66.1547 30.2427 66 29.864 66 29.416C66 29.16 66.0427 28.9627 66.128 28.824C66.224 28.6747 66.32 28.5893 66.416 28.568L66.544 28.552C66.6613 28.5627 66.72 28.6267 66.72 28.744ZM84.0524 28.728L84.8044 28.632C84.9324 28.632 85.0337 28.6747 85.1084 28.76C85.183 28.8453 85.2204 28.9467 85.2204 29.064C85.2204 29.2987 85.055 29.5547 84.7244 29.832C84.3937 30.1093 84.063 30.3707 83.7324 30.616C83.4124 30.8613 83.2524 31.0587 83.2524 31.208C83.2524 31.2933 83.3217 31.336 83.4604 31.336C83.919 31.336 84.6177 31.0693 85.5564 30.536C85.9617 30.312 86.3937 30.04 86.8524 29.72L86.8844 29.96C86.5217 30.1947 86.1164 30.4347 85.6684 30.68C85.4124 30.84 85.039 31.0213 84.5484 31.224C84.0577 31.4373 83.6524 31.544 83.3324 31.544C83.0124 31.544 82.8524 31.4 82.8524 31.112C82.8524 30.7813 83.023 30.472 83.3644 30.184C83.7057 29.8853 84.0417 29.64 84.3724 29.448C84.7137 29.2453 84.8844 29.0907 84.8844 28.984C84.8844 28.952 84.847 28.936 84.7724 28.936L83.8764 29.016C83.7057 29.016 83.551 29 83.4124 28.968C82.9004 29.3307 82.3617 29.688 81.7964 30.04L81.7484 29.816L83.2684 28.76C83.279 28.5573 83.407 28.3547 83.6524 28.152C83.8977 27.9493 84.1057 27.848 84.2764 27.848C84.447 27.848 84.5324 27.896 84.5324 27.992C84.5324 28.0773 84.431 28.1893 84.2284 28.328C84.0257 28.4667 83.9244 28.568 83.9244 28.632C83.9244 28.696 83.967 28.728 84.0524 28.728ZM91.7095 26.776C91.7095 26.9253 91.6242 27.0693 91.4535 27.208C91.2828 27.3467 91.1228 27.416 90.9735 27.416C90.8348 27.416 90.7655 27.3573 90.7655 27.24C90.7655 27.1227 90.8508 26.9893 91.0215 26.84C91.1922 26.68 91.3468 26.6 91.4855 26.6C91.6348 26.6 91.7095 26.6587 91.7095 26.776ZM90.3495 28.504C88.9095 29.8053 88.1895 30.6213 88.1895 30.952C88.1895 31.0587 88.2642 31.112 88.4135 31.112C88.5522 31.112 88.7655 31.048 89.0535 30.92C89.3415 30.792 89.5975 30.664 89.8215 30.536C90.0455 30.3973 90.3122 30.232 90.6215 30.04C90.9415 29.8373 91.1122 29.7307 91.1335 29.72L91.1655 29.96C90.6748 30.28 90.1148 30.6 89.4855 30.92C88.8562 31.24 88.3815 31.4 88.0615 31.4C87.7308 31.4 87.5655 31.2667 87.5655 31C87.5655 30.776 87.7575 30.44 88.1415 29.992C88.5255 29.5333 88.9095 29.1333 89.2935 28.792L89.8695 28.28C89.9228 28.2373 90.0242 28.2213 90.1735 28.232C90.3228 28.2427 90.3975 28.296 90.3975 28.392C90.3975 28.4347 90.3815 28.472 90.3495 28.504ZM95.485 28.12C95.709 28.12 95.821 28.2427 95.821 28.488C95.821 28.7227 95.6503 29.0693 95.309 29.528C96.525 28.6853 97.501 28.264 98.237 28.264C98.525 28.264 98.669 28.3867 98.669 28.632C98.669 28.8773 98.5623 29.1333 98.349 29.4C98.1357 29.656 97.901 29.88 97.645 30.072C96.9623 30.5627 96.621 30.872 96.621 31C96.621 31.0747 96.6797 31.112 96.797 31.112C96.925 31.112 97.133 31.048 97.421 30.92C97.709 30.792 97.965 30.664 98.189 30.536C98.413 30.3973 98.6797 30.232 98.989 30.04C99.309 29.8373 99.4797 29.7307 99.501 29.72L99.533 29.96C98.093 30.92 97.085 31.4 96.509 31.4C96.2317 31.4 96.093 31.2667 96.093 31C96.093 30.8187 96.205 30.6053 96.429 30.36C96.6637 30.104 96.9143 29.8693 97.181 29.656C97.917 29.1013 98.285 28.7333 98.285 28.552C98.285 28.4987 98.2263 28.472 98.109 28.472C97.7143 28.472 97.1277 28.6853 96.349 29.112C95.5703 29.5387 94.7063 30.232 93.757 31.192C93.693 31.256 93.5703 31.288 93.389 31.288C93.2183 31.288 93.133 31.24 93.133 31.144C93.133 31.112 93.501 30.7173 94.237 29.96C94.973 29.2027 95.341 28.712 95.341 28.488C95.341 28.4347 95.3037 28.408 95.229 28.408C95.165 28.408 95.021 28.4773 94.797 28.616C94.5837 28.7547 94.2477 28.9787 93.789 29.288C93.341 29.5867 92.957 29.8373 92.637 30.04L92.589 29.816C92.749 29.7093 92.9677 29.56 93.245 29.368C93.5223 29.176 93.7517 29.0213 93.933 28.904C94.1143 28.776 94.3117 28.6427 94.525 28.504C94.941 28.248 95.261 28.12 95.485 28.12ZM101.179 31.032C101.584 31.032 102.123 30.8293 102.795 30.424C103.477 30.008 104.043 29.608 104.491 29.224C104.949 28.84 105.179 28.616 105.179 28.552C105.179 28.488 105.099 28.4347 104.939 28.392C104.789 28.3493 104.581 28.328 104.315 28.328C104.048 28.328 103.696 28.4347 103.259 28.648C102.821 28.8507 102.443 29.096 102.123 29.384C101.803 29.672 101.536 29.9547 101.323 30.232C101.109 30.5093 101.003 30.712 101.003 30.84C101.003 30.968 101.061 31.032 101.179 31.032ZM105.467 28.344C105.68 28.1733 105.797 28.088 105.819 28.088C106.107 28.12 106.256 28.1467 106.267 28.168C106.277 28.1787 106.283 28.1947 106.283 28.216C106.283 28.2373 106.24 28.3067 106.155 28.424C106.069 28.5307 105.819 28.792 105.403 29.208C104.368 30.2213 103.851 30.8347 103.851 31.048C103.851 31.1333 103.888 31.176 103.963 31.176C104.475 31.176 105.435 30.6907 106.843 29.72L106.875 29.96C105.456 30.888 104.453 31.352 103.867 31.352C103.579 31.352 103.435 31.2187 103.435 30.952C103.435 30.6747 103.6 30.3173 103.931 29.88C102.672 30.808 101.691 31.2773 100.987 31.288C100.731 31.288 100.603 31.1333 100.603 30.824C100.603 30.2693 100.955 29.6773 101.659 29.048C102.373 28.4187 103.312 28.104 104.475 28.104C104.859 28.104 105.189 28.184 105.467 28.344ZM115.831 29.944C115.831 30.1573 116.018 30.264 116.391 30.264C117.17 30.264 118.311 29.5547 119.815 28.136C118.738 28.1467 117.804 28.3653 117.015 28.792C116.226 29.208 115.831 29.592 115.831 29.944ZM130.055 19.32C130.706 19.4053 131.351 19.448 131.991 19.448C132.642 19.448 133.276 19.304 133.895 19.016C134.514 18.7173 134.823 18.4293 134.823 18.152C134.823 17.9067 134.551 17.784 134.007 17.784C132.834 17.784 131.516 18.296 130.055 19.32ZM120.775 28.04C122.226 28.2213 122.978 28.8933 123.031 30.056C123.586 29.416 123.863 28.7653 123.863 28.104C123.863 27.3253 123.442 26.728 122.599 26.312C121.778 27.112 121.17 27.688 120.775 28.04ZM112.887 37.336C112.887 37.6133 112.988 37.8107 113.191 37.928C113.394 38.056 113.623 38.12 113.879 38.12C114.764 38.12 115.847 37.7093 117.127 36.888C118.418 36.0667 119.586 35.0693 120.631 33.896C121.687 32.7227 122.348 31.656 122.615 30.696C121.538 31.6347 119.527 32.7867 116.583 34.152C115.612 34.6 114.754 35.112 114.007 35.688C113.26 36.264 112.887 36.8133 112.887 37.336ZM122.647 18.616C121.271 18.616 120.098 18.9787 119.127 19.704C118.156 20.4187 117.671 21.1387 117.671 21.864C117.671 22.2053 117.81 22.4773 118.087 22.68C118.364 22.8827 118.77 22.984 119.303 22.984C120.316 22.984 121.527 22.616 122.935 21.88C124.343 21.144 125.559 20.2427 126.583 19.176L126.023 19.064C125.756 19.0107 125.564 18.9733 125.447 18.952C125.33 18.92 125.154 18.8827 124.919 18.84C124.684 18.7973 124.492 18.7653 124.343 18.744C124.194 18.7227 124.018 18.7013 123.815 18.68C123.41 18.6373 123.02 18.616 122.647 18.616ZM118.791 19.544C119.292 19.2027 119.959 18.9253 120.791 18.712C121.623 18.4987 122.492 18.392 123.399 18.392C124.306 18.392 125.484 18.5253 126.935 18.792C127.33 18.312 127.623 17.912 127.815 17.592L127.959 17.672C127.756 18.0347 127.479 18.4187 127.127 18.824C128.322 19.0373 129.106 19.176 129.479 19.24C131.175 18.1413 132.732 17.592 134.151 17.592C134.791 17.592 135.111 17.752 135.111 18.072C135.111 18.424 134.732 18.7867 133.975 19.16C133.228 19.5227 132.3 19.704 131.191 19.704C130.562 19.704 130.028 19.6827 129.591 19.64C128.567 20.4187 127.431 21.4213 126.183 22.648C125.746 23.0853 125.143 23.6987 124.375 24.488C123.618 25.2667 123.074 25.8213 122.743 26.152C123.66 26.6107 124.119 27.2293 124.119 28.008C124.119 28.7867 123.762 29.5493 123.047 30.296C123.026 31.0427 122.727 31.8853 122.151 32.824C121.586 33.7627 120.876 34.6373 120.023 35.448C119.17 36.2587 118.172 36.936 117.031 37.48C115.9 38.0347 114.812 38.312 113.767 38.312C113.426 38.312 113.154 38.216 112.951 38.024C112.759 37.8427 112.663 37.6507 112.663 37.448C112.663 36.9253 112.914 36.4133 113.415 35.912C113.916 35.4213 114.572 34.9573 115.383 34.52C116.194 34.0933 117.031 33.6773 117.895 33.272C120.21 32.2053 121.804 31.2613 122.679 30.44C122.711 30.2587 122.727 30.0933 122.727 29.944C122.727 28.92 122.023 28.3333 120.615 28.184C118.834 29.7307 117.372 30.504 116.231 30.504C115.836 30.504 115.639 30.36 115.639 30.072C115.639 29.6347 116.039 29.1813 116.839 28.712C117.65 28.2427 118.695 28.0027 119.975 27.992C120.37 27.6187 121.02 26.968 121.927 26.04C121.266 25.848 120.498 25.752 119.623 25.752C118.759 25.752 117.895 25.912 117.031 26.232C116.178 26.552 115.458 26.9573 114.871 27.448C114.284 27.928 113.81 28.4507 113.447 29.016C113.095 29.5707 112.919 30.1147 112.919 30.648C112.919 31.1707 113.1 31.5653 113.463 31.832C113.826 32.1093 114.38 32.248 115.127 32.248C115.874 32.248 116.796 32.008 117.895 31.528C118.994 31.048 119.911 30.4507 120.647 29.736L120.759 29.864C120.204 30.4507 119.314 31.0213 118.087 31.576C116.871 32.1413 115.783 32.424 114.823 32.424C113.394 32.424 112.679 31.752 112.679 30.408C112.679 29.8853 112.839 29.3467 113.159 28.792C113.479 28.2373 113.932 27.72 114.519 27.24C115.106 26.76 115.879 26.3653 116.839 26.056C117.799 25.7467 118.748 25.592 119.687 25.592C120.626 25.592 121.426 25.688 122.087 25.88C123.079 24.856 123.831 24.088 124.343 23.576C124.855 23.064 125.564 22.4027 126.471 21.592C127.388 20.7707 128.22 20.0987 128.967 19.576C128.274 19.4907 127.543 19.368 126.775 19.208C125.783 20.2533 124.588 21.1707 123.191 21.96C121.794 22.7493 120.46 23.144 119.191 23.144C118.562 23.144 118.076 23.016 117.735 22.76C117.404 22.4933 117.239 22.168 117.239 21.784C117.239 21.4 117.372 21.016 117.639 20.632C117.916 20.248 118.3 19.8853 118.791 19.544ZM126.635 31.032C127.04 31.032 127.579 30.8293 128.251 30.424C128.934 30.008 129.499 29.608 129.947 29.224C130.406 28.84 130.635 28.616 130.635 28.552C130.635 28.488 130.555 28.4347 130.395 28.392C130.246 28.3493 130.038 28.328 129.771 28.328C129.504 28.328 129.152 28.4347 128.715 28.648C128.278 28.8507 127.899 29.096 127.579 29.384C127.259 29.672 126.992 29.9547 126.779 30.232C126.566 30.5093 126.459 30.712 126.459 30.84C126.459 30.968 126.518 31.032 126.635 31.032ZM130.923 28.344C131.136 28.1733 131.254 28.088 131.275 28.088C131.563 28.12 131.712 28.1467 131.723 28.168C131.734 28.1787 131.739 28.1947 131.739 28.216C131.739 28.2373 131.696 28.3067 131.611 28.424C131.526 28.5307 131.275 28.792 130.859 29.208C129.824 30.2213 129.307 30.8347 129.307 31.048C129.307 31.1333 129.344 31.176 129.419 31.176C129.931 31.176 130.891 30.6907 132.299 29.72L132.331 29.96C130.912 30.888 129.91 31.352 129.323 31.352C129.035 31.352 128.891 31.2187 128.891 30.952C128.891 30.6747 129.056 30.3173 129.387 29.88C128.128 30.808 127.147 31.2773 126.443 31.288C126.187 31.288 126.059 31.1333 126.059 30.824C126.059 30.2693 126.411 29.6773 127.115 29.048C127.83 28.4187 128.768 28.104 129.931 28.104C130.315 28.104 130.646 28.184 130.923 28.344ZM130.257 35.432C129.969 35.656 129.761 35.8693 129.633 36.072C129.505 36.2853 129.441 36.5093 129.441 36.744C129.441 36.9787 129.558 37.096 129.793 37.096C130.369 37.096 132.06 35.6667 134.865 32.808C132.977 33.7147 131.809 34.3227 131.361 34.632C130.902 34.9413 130.534 35.208 130.257 35.432ZM129.681 37.32C129.372 37.32 129.217 37.144 129.217 36.792C129.217 36.44 129.377 36.0773 129.697 35.704C130.017 35.3413 130.492 34.968 131.121 34.584C132.113 33.9867 133.441 33.2827 135.105 32.472C135.18 32.44 135.238 32.4133 135.281 32.392C135.462 32.2107 135.75 31.9067 136.145 31.48C136.55 31.0533 136.902 30.6907 137.201 30.392C136.241 31.0213 135.574 31.336 135.201 31.336C134.828 31.336 134.641 31.2027 134.641 30.936C134.641 30.5733 135.121 30.0027 136.081 29.224C136.39 28.968 136.545 28.8027 136.545 28.728C136.545 28.6427 136.502 28.6 136.417 28.6C136.236 28.6 135.932 28.728 135.505 28.984C135.089 29.24 134.828 29.4 134.721 29.464C134.614 29.528 134.454 29.6293 134.241 29.768C134.038 29.896 133.894 29.9867 133.809 30.04L133.761 29.816C135.222 28.856 136.161 28.376 136.577 28.376C136.854 28.376 136.993 28.5307 136.993 28.84C136.993 29.1707 136.513 29.72 135.553 30.488C135.233 30.744 135.073 30.9147 135.073 31C135.073 31.0533 135.142 31.08 135.281 31.08C135.601 31.08 136.092 30.872 136.753 30.456C137.414 30.0293 137.969 29.608 138.417 29.192C139.068 28.584 139.42 28.28 139.473 28.28C139.537 28.28 139.628 28.296 139.745 28.328C139.873 28.36 139.937 28.3973 139.937 28.44C139.937 28.472 139.862 28.5573 139.713 28.696C139.564 28.824 138.55 29.8267 136.673 31.704C137.718 31.1707 138.534 30.7227 139.121 30.36C139.718 29.9973 140.065 29.784 140.161 29.72L140.193 29.96C139.713 30.2373 139.372 30.4453 139.169 30.584C138.422 31.0427 137.441 31.5653 136.225 32.152C134.646 33.7307 133.302 34.984 132.193 35.912C131.073 36.8507 130.236 37.32 129.681 37.32ZM141.835 31.032C142.208 31.032 142.726 30.84 143.387 30.456C144.048 30.0613 144.619 29.6667 145.099 29.272C145.59 28.8667 145.835 28.632 145.835 28.568C145.835 28.4933 145.755 28.4347 145.595 28.392C145.446 28.3493 145.238 28.328 144.971 28.328C144.704 28.328 144.352 28.4347 143.915 28.648C143.478 28.8507 143.099 29.096 142.779 29.384C142.459 29.672 142.192 29.9547 141.979 30.232C141.766 30.5093 141.659 30.712 141.659 30.84C141.659 30.968 141.718 31.032 141.835 31.032ZM149.995 25.256C149.558 25.6827 149.04 26.1947 148.443 26.792C147.846 27.3787 147.371 27.8533 147.019 28.216C146.678 28.568 146.39 28.856 146.155 29.08C145.931 29.304 145.739 29.5013 145.579 29.672C145.419 29.832 145.248 30.008 145.067 30.2C144.886 30.392 144.747 30.5627 144.651 30.712C144.555 30.8507 144.507 30.9627 144.507 31.048C144.507 31.1333 144.544 31.176 144.619 31.176C145.131 31.176 146.091 30.6907 147.499 29.72L147.531 29.96C146.112 30.888 145.11 31.352 144.523 31.352C144.235 31.352 144.091 31.2187 144.091 30.952C144.091 30.664 144.262 30.3067 144.603 29.88C143.344 30.808 142.358 31.2773 141.643 31.288C141.387 31.288 141.259 31.1333 141.259 30.824C141.259 30.2693 141.611 29.6773 142.315 29.048C143.03 28.4187 143.968 28.104 145.131 28.104C145.526 28.104 145.862 28.184 146.139 28.344C146.192 28.3013 146.256 28.2427 146.331 28.168L153.019 21.688C153.083 21.624 153.211 21.592 153.403 21.592C153.595 21.592 153.691 21.6507 153.691 21.768C153.691 21.8107 153.664 21.8587 153.611 21.912C153.568 21.9547 153.414 22.0933 153.147 22.328C152.88 22.5627 152.619 22.7973 152.363 23.032C152.118 23.256 151.771 23.576 151.323 23.992C150.875 24.408 150.432 24.8293 149.995 25.256ZM150.705 28.168C150.758 28.1253 150.902 28.1147 151.137 28.136C151.254 28.1573 151.313 28.184 151.313 28.216C151.313 28.2373 151.286 28.28 151.233 28.344C151.18 28.408 150.924 28.664 150.465 29.112C149.516 30.04 149.041 30.6213 149.041 30.856C149.041 30.9093 149.073 30.936 149.137 30.936C149.5 30.936 150.817 30.168 153.089 28.632L153.521 28.28C153.574 28.2373 153.676 28.2213 153.825 28.232C153.974 28.2427 154.049 28.296 154.049 28.392C154.049 28.4347 154.033 28.472 154.001 28.504C152.508 29.848 151.761 30.6587 151.761 30.936C151.761 31.0533 151.846 31.112 152.017 31.112C152.188 31.112 152.417 31.048 152.705 30.92C152.993 30.792 153.249 30.664 153.473 30.536C153.697 30.3973 153.964 30.232 154.273 30.04C154.593 29.8373 154.764 29.7307 154.785 29.72L154.817 29.96C154.326 30.28 153.766 30.6 153.137 30.92C152.508 31.24 152.028 31.4 151.697 31.4C151.377 31.4 151.217 31.2667 151.217 31C151.217 30.6267 151.505 30.1413 152.081 29.544C150.406 30.632 149.372 31.176 148.977 31.176C148.742 31.176 148.625 31.0373 148.625 30.76C148.625 30.1733 149.318 29.3093 150.705 28.168ZM165.816 21.768C165.283 21.768 164.035 22.6267 162.072 24.344C160.11 26.0613 158.52 27.64 157.304 29.08C158.723 28.1093 160.51 26.744 162.664 24.984C164.819 23.2133 165.896 22.1573 165.896 21.816C165.896 21.784 165.87 21.768 165.816 21.768ZM156.824 29.672C156.398 30.2373 156.184 30.6213 156.184 30.824C156.184 31.016 156.275 31.112 156.456 31.112C156.958 31.112 157.875 30.648 159.208 29.72L159.24 29.96C157.822 30.888 156.819 31.352 156.232 31.352C155.944 31.352 155.8 31.2187 155.8 30.952C155.8 30.3653 156.483 29.3093 157.848 27.784C159.224 26.248 160.739 24.8293 162.392 23.528C164.056 22.216 165.235 21.56 165.928 21.56C166.056 21.56 166.12 21.608 166.12 21.704C166.12 21.96 165.859 22.3653 165.336 22.92C164.824 23.464 164.131 24.088 163.256 24.792C162.382 25.496 161.566 26.136 160.808 26.712C160.051 27.288 159.23 27.9013 158.344 28.552C157.459 29.192 156.952 29.5653 156.824 29.672ZM170.229 21.768C169.696 21.768 168.448 22.6267 166.485 24.344C164.522 26.0613 162.933 27.64 161.717 29.08C163.136 28.1093 164.922 26.744 167.077 24.984C169.232 23.2133 170.309 22.1573 170.309 21.816C170.309 21.784 170.282 21.768 170.229 21.768ZM161.237 29.672C160.81 30.2373 160.597 30.6213 160.597 30.824C160.597 31.016 160.688 31.112 160.869 31.112C161.37 31.112 162.288 30.648 163.621 29.72L163.653 29.96C162.234 30.888 161.232 31.352 160.645 31.352C160.357 31.352 160.213 31.2187 160.213 30.952C160.213 30.3653 160.896 29.3093 162.261 27.784C163.637 26.248 165.152 24.8293 166.805 23.528C168.469 22.216 169.648 21.56 170.341 21.56C170.469 21.56 170.533 21.608 170.533 21.704C170.533 21.96 170.272 22.3653 169.749 22.92C169.237 23.464 168.544 24.088 167.669 24.792C166.794 25.496 165.978 26.136 165.221 26.712C164.464 27.288 163.642 27.9013 162.757 28.552C161.872 29.192 161.365 29.5653 161.237 29.672ZM168.481 26.776C168.481 26.9253 168.396 27.0693 168.225 27.208C168.055 27.3467 167.895 27.416 167.745 27.416C167.607 27.416 167.537 27.3573 167.537 27.24C167.537 27.1227 167.623 26.9893 167.793 26.84C167.964 26.68 168.119 26.6 168.257 26.6C168.407 26.6 168.481 26.6587 168.481 26.776ZM167.121 28.504C165.681 29.8053 164.961 30.6213 164.961 30.952C164.961 31.0587 165.036 31.112 165.185 31.112C165.324 31.112 165.537 31.048 165.825 30.92C166.113 30.792 166.369 30.664 166.593 30.536C166.817 30.3973 167.084 30.232 167.393 30.04C167.713 29.8373 167.884 29.7307 167.905 29.72L167.937 29.96C167.447 30.28 166.887 30.6 166.257 30.92C165.628 31.24 165.153 31.4 164.833 31.4C164.503 31.4 164.337 31.2667 164.337 31C164.337 30.776 164.529 30.44 164.913 29.992C165.297 29.5333 165.681 29.1333 166.065 28.792L166.641 28.28C166.695 28.2373 166.796 28.2213 166.945 28.232C167.095 28.2427 167.169 28.296 167.169 28.392C167.169 28.4347 167.153 28.472 167.121 28.504ZM172.257 28.12C172.481 28.12 172.593 28.2427 172.593 28.488C172.593 28.7227 172.422 29.0693 172.081 29.528C173.297 28.6853 174.273 28.264 175.009 28.264C175.297 28.264 175.441 28.3867 175.441 28.632C175.441 28.8773 175.334 29.1333 175.121 29.4C174.908 29.656 174.673 29.88 174.417 30.072C173.734 30.5627 173.393 30.872 173.393 31C173.393 31.0747 173.452 31.112 173.569 31.112C173.697 31.112 173.905 31.048 174.193 30.92C174.481 30.792 174.737 30.664 174.961 30.536C175.185 30.3973 175.452 30.232 175.761 30.04C176.081 29.8373 176.252 29.7307 176.273 29.72L176.305 29.96C174.865 30.92 173.857 31.4 173.281 31.4C173.004 31.4 172.865 31.2667 172.865 31C172.865 30.8187 172.977 30.6053 173.201 30.36C173.436 30.104 173.686 29.8693 173.953 29.656C174.689 29.1013 175.057 28.7333 175.057 28.552C175.057 28.4987 174.998 28.472 174.881 28.472C174.486 28.472 173.9 28.6853 173.121 29.112C172.342 29.5387 171.478 30.232 170.529 31.192C170.465 31.256 170.342 31.288 170.161 31.288C169.99 31.288 169.905 31.24 169.905 31.144C169.905 31.112 170.273 30.7173 171.009 29.96C171.745 29.2027 172.113 28.712 172.113 28.488C172.113 28.4347 172.076 28.408 172.001 28.408C171.937 28.408 171.793 28.4773 171.569 28.616C171.356 28.7547 171.02 28.9787 170.561 29.288C170.113 29.5867 169.729 29.8373 169.409 30.04L169.361 29.816C169.521 29.7093 169.74 29.56 170.017 29.368C170.294 29.176 170.524 29.0213 170.705 28.904C170.886 28.776 171.084 28.6427 171.297 28.504C171.713 28.248 172.033 28.12 172.257 28.12ZM177.95 31.032C178.356 31.032 178.895 30.8293 179.567 30.424C180.249 30.008 180.815 29.608 181.263 29.224C181.721 28.84 181.951 28.616 181.951 28.552C181.951 28.488 181.871 28.4347 181.711 28.392C181.561 28.3493 181.353 28.328 181.087 28.328C180.82 28.328 180.468 28.4347 180.031 28.648C179.593 28.8507 179.215 29.096 178.895 29.384C178.575 29.672 178.308 29.9547 178.095 30.232C177.881 30.5093 177.774 30.712 177.774 30.84C177.774 30.968 177.833 31.032 177.95 31.032ZM182.239 28.344C182.452 28.1733 182.569 28.088 182.591 28.088C182.879 28.12 183.028 28.1467 183.039 28.168C183.049 28.1787 183.055 28.1947 183.055 28.216C183.055 28.2373 183.012 28.3067 182.927 28.424C182.841 28.5307 182.591 28.792 182.174 29.208C181.14 30.2213 180.623 30.8347 180.623 31.048C180.623 31.1333 180.66 31.176 180.735 31.176C181.247 31.176 182.207 30.6907 183.615 29.72L183.647 29.96C182.228 30.888 181.225 31.352 180.639 31.352C180.351 31.352 180.207 31.2187 180.207 30.952C180.207 30.6747 180.372 30.3173 180.703 29.88C179.444 30.808 178.463 31.2773 177.758 31.288C177.502 31.288 177.374 31.1333 177.374 30.824C177.374 30.2693 177.726 29.6773 178.431 29.048C179.145 28.4187 180.084 28.104 181.247 28.104C181.631 28.104 181.961 28.184 182.239 28.344Z" fill="#FAEEFB"/>
</svg>
